PathFileType	4	(X/Y/Z)	C:\Users\Basilio\Documents\Thesis Gigler\squatting_fais\c3dfiles\058\SLS_back_pre5\markers_experimental.trc
DataRate	CameraRate	NumFrames	NumMarkers	Units	OrigDataRate	OrigDataStartFrame	OrigNumFrames
200.000000	200.000000	4	61	mm	200.000000	433	1156
Frame#	Time	FHD			LBHD			RBHD			C7			T10			CLAV			LSHO			LUUPA			LMUPA			LDUPA			LLEP			LMEP			LUL			LRFIN			RSHO			RUPA1			RMUPA			RDUPA			RLEP			RMEP			RUL			RUFIN			LASI			RASI			USACR			LSACR			RSACR			LTHI1			LTHI2			LTHI3			LTHI4			LLFC			LMFC			LTIB1			LTIB3			LTIB4			LLMAL			LMMAL			LHEE			LMT1			LMT5			RTHI			RTHI2			RTHI3			RTHI4			RLFC			RMFC			RTIB1			RTIB2			RTIB3			RTIB4			RLMAL			RMMAL			RHEE			RMT1			RMT2			RMT5			LTIB2			LMT2			LRAD			RRAD			
		X1	Y1	Z1	X2	Y2	Z2	X3	Y3	Z3	X4	Y4	Z4	X5	Y5	Z5	X6	Y6	Z6	X7	Y7	Z7	X8	Y8	Z8	X9	Y9	Z9	X10	Y10	Z10	X11	Y11	Z11	X12	Y12	Z12	X13	Y13	Z13	X14	Y14	Z14	X15	Y15	Z15	X16	Y16	Z16	X17	Y17	Z17	X18	Y18	Z18	X19	Y19	Z19	X20	Y20	Z20	X21	Y21	Z21	X22	Y22	Z22	X23	Y23	Z23	X24	Y24	Z24	X25	Y25	Z25	X26	Y26	Z26	X27	Y27	Z27	X28	Y28	Z28	X29	Y29	Z29	X30	Y30	Z30	X31	Y31	Z31	X32	Y32	Z32	X33	Y33	Z33	X34	Y34	Z34	X35	Y35	Z35	X36	Y36	Z36	X37	Y37	Z37	X38	Y38	Z38	X39	Y39	Z39	X40	Y40	Z40	X41	Y41	Z41	X42	Y42	Z42	X43	Y43	Z43	X44	Y44	Z44	X45	Y45	Z45	X46	Y46	Z46	X47	Y47	Z47	X48	Y48	Z48	X49	Y49	Z49	X50	Y50	Z50	X51	Y51	Z51	X52	Y52	Z52	X53	Y53	Z53	X54	Y54	Z54	X55	Y55	Z55	X56	Y56	Z56	X57	Y57	Z57	X58	Y58	Z58	X59	Y59	Z59	X60	Y60	Z60	X61	Y61	Z61	

434	2.165	-197.3793640136719	1724.380249023438	-636.1299438476564	-352.3948059082032	1680.0615234375	-718.3521118164064	-177.8903045654297	1728.8349609375	-778.9778442382815	-373.9085998535157	1524.02685546875	-731.6101684570314	-419.3060302734376	1226.238891601563	-720.2931518554689	-226.556381225586	1465.652709960938	-707.6635131835939	-225.2245330810547	1521.267944335938	-857.1164550781252	-64.74044036865236	1466.227416992188	-956.6897583007815	-44.28987503051759	1504.627075195313	-929.6707153320315	3.284543752670289	1469.423461914063	-942.5871582031252	76.5604934692383	1477.656982421875	-921.2967529296877	81.84155273437501	1422.777465820313	-885.7741699218752	340.8191223144532	1527.784301757813	-886.397399902344	429.6058044433595	1542.503295898438	-801.2904052734377	-251.5280914306641	1530.39208984375	-560.7467651367189	-98.51390075683597	1454.3828125	-446.8488159179689	-76.54894256591798	1493.146362304688	-471.4258422851564	-29.84611129760743	1465.461669921875	-447.2670898437501	38.93168640136719	1460.245849609375	-453.968231201172	49.60815429687501	1401.304077148438	-503.0113220214845	305.1769714355469	1516.064697265625	-457.9348754882814	394.2875366210939	1542.893432617188	-525.3203735351564	-270.0214233398438	1000.122680664063	-840.4456787109377	-277.9429626464844	999.2510375976565	-599.7458496093751	-450.331512451172	1112.709838867188	-714.7701416015626	-460.8603515625001	1082.242797851563	-742.6590576171876	-460.5926208496095	1082.25146484375	-684.2514038085939	-301.4606933593751	736.6762084960939	-943.5032348632815	-265.6900024414063	658.9110107421876	-947.5061035156252	-225.2736053466797	656.4259033203126	-918.3062133789065	-293.1404113769532	604.4066162109376	-951.781188964844	-308.7525634765626	525.2876586914064	-949.8181152343752	-301.7665405273438	489.6571044921876	-822.7517089843752	-401.2592163085939	428.4922790527345	-934.8279418945315	-448.8957519531251	444.555633544922	-967.258972167969	-530.1578369140626	421.9000244140626	-948.983093261719	-730.8908081054689	456.8004150390626	-959.3685302734377	-712.8737792968751	409.2590332031251	-880.3269042968752	-715.4343872070314	507.2472534179689	-894.386657714844	-835.8809814453127	323.1530456542969	-884.5865478515627	-861.7963867187502	385.3208312988282	-968.5478515625002	-336.7995605468751	791.5830688476565	-538.8831176757814	-283.2906799316407	751.1428222656251	-542.0352783203126	-251.5801086425782	760.1090087890626	-544.9107055664064	-284.6784973144532	671.0971069335939	-567.7597656250001	-231.6039123535157	509.119110107422	-602.6796264648439	-204.4356384277344	517.9442749023439	-731.9464721679689	-231.4311676025391	326.1452636718751	-715.9749145507814	-286.7285461425782	251.9916229248047	-656.1509399414064	-257.4490661621094	242.4683990478516	-693.4861450195314	-281.5725402832032	208.0677490234376	-732.8050537109376	-366.9766235351563	113.984619140625	-698.2025146484376	-335.3864440917969	141.6568756103516	-784.9240722656252	-437.3807678222657	102.0081176757813	-764.8659667968751	-227.6658630371094	61.71768951416017	-775.3645019531252	-222.7959747314454	59.4314308166504	-723.9231567382814	-272.9526062011719	27.6486930847168	-672.2290649414064	-450.9262084960939	488.4747314453126	-973.8855590820315	-856.1087036132815	324.0931396484376	-924.3809814453127	335.1849060058594	1505.889404296875	-808.0190429687502	nan	nan	nan	
435	2.17	-196.733871459961	1723.402954101563	-636.0046386718751	-351.9440002441407	1679.140258789063	-718.0474243164064	-177.6920623779297	1727.804077148438	-778.8696289062502	-373.4154663085938	1523.233520507813	-731.3947143554689	-419.2789916992189	1225.176391601563	-720.3098754882814	-225.8524780273438	1464.686157226563	-707.3248291015626	-224.9932098388672	1520.458251953125	-856.9034423828127	-64.65777587890626	1465.384643554688	-956.5054931640627	-43.97423553466798	1503.750854492188	-929.5239868164065	3.691123962402345	1468.626098632813	-942.5020141601565	76.91099548339845	1476.692993164063	-921.1657714843752	81.60134124755861	1421.736206054688	-885.154479980469	341.2135009765626	1526.800659179688	-886.4070434570315	429.8367614746095	1541.484130859375	-801.2290649414065	-251.0268859863282	1529.648803710938	-560.5694580078126	-97.9693298339844	1453.875854492188	-446.7392578125001	-76.06224060058595	1492.169555664063	-471.3394470214845	-29.51151084899903	1464.605712890625	-447.1739501953126	39.31592178344727	1459.126220703125	-453.9996337890626	49.88476562500001	1400.220581054688	-503.5337829589845	305.6997070312501	1515.525268554688	-457.5404663085939	395.1084289550782	1542.004272460938	-525.3528442382814	-270.1618957519532	999.0787353515627	-840.410339355469	-278.3705749511719	998.3154296875002	-599.7615966796876	-450.3128662109376	1112.239624023438	-714.7892456054689	-460.8990173339845	1081.25634765625	-742.5736083984376	-461.6441955566407	1081.620849609375	-684.0138549804689	-301.9333190917969	735.7550048828126	-943.425964355469	-266.0801696777344	658.0635375976564	-947.612731933594	-225.7934722900391	655.1904907226564	-918.4437255859377	-293.6343994140626	603.5498657226564	-951.719665527344	-309.3617858886719	524.3944702148439	-949.9092407226565	-302.2080993652344	488.871795654297	-822.872985839844	-402.1071777343751	427.1854553222657	-934.3305664062502	-449.3102416992189	443.7883300781251	-967.2481079101565	-530.6422119140626	421.1840820312501	-949.0672607421877	-731.3197021484376	456.0423889160157	-959.147399902344	-713.3168334960939	408.6520080566407	-880.1990966796877	-715.9101562500001	506.6978759765626	-894.2170410156252	-836.3940429687502	322.7328491210938	-884.4075317382815	-862.464050292969	384.9003906250001	-968.4609985351565	-336.8396606445313	790.934753417969	-538.7578125000001	-283.2782287597657	751.0512084960939	-541.5501708984376	-251.6827087402344	759.7358398437501	-544.4318847656251	-284.4479675292969	670.2180175781251	-567.3129882812501	-230.9131927490235	508.7562561035157	-602.2378540039064	-203.6013946533204	517.5300903320314	-731.1271362304689	-230.8504333496094	325.9788208007813	-715.4695434570314	-286.5603027343751	251.9920959472657	-655.4823608398439	-256.6651611328126	241.8165283203126	-692.4886474609376	-281.3478698730469	208.0020751953126	-732.4071044921876	-366.9974060058594	113.9421539306641	-698.0155029296876	-335.1678466796876	141.676010131836	-784.498962402344	-437.3962707519532	102.0196075439453	-764.7581176757814	-227.6710662841797	61.72208786010744	-775.2656250000002	-222.8010711669922	59.41192626953126	-723.7393188476564	-272.9062805175782	27.49702072143555	-672.1080932617189	-451.396453857422	487.7338867187501	-973.8253173828127	-856.6856689453127	323.6677856445313	-924.2520141601565	335.6026306152344	1504.961059570313	-807.932800292969	nan	nan	nan	
436	2.175	-196.4129943847657	1722.513916015625	-635.7646484375001	-351.7082824707032	1678.389038085938	-717.6652221679689	-177.2012634277344	1726.866577148438	-778.6968994140627	-373.0063476562501	1522.458984375	-731.1551513671876	-419.3192443847657	1224.272338867188	-720.1487426757814	-225.6502990722657	1463.640014648438	-707.2092895507814	-224.6813201904297	1519.3798828125	-856.7078857421877	-64.44447326660158	1464.573120117188	-956.3450317382815	-43.79603576660157	1502.664916992188	-929.2835083007815	3.871670484542848	1467.531005859375	-942.2549438476565	77.20846557617189	1475.762573242188	-921.2398071289065	82.33619689941408	1420.870971679688	-885.495056152344	341.4118957519532	1525.763916015625	-886.2042236328127	429.9493103027345	1540.412353515625	-801.1458129882815	-250.8046417236329	1528.487548828125	-560.2565917968751	-97.678825378418	1452.73095703125	-446.577362060547	-75.50514984130861	1491.286865234375	-471.386932373047	-29.05244445800782	1463.683227539063	-447.0533447265626	39.68161392211915	1458.391235351563	-453.9612426757814	49.796932220459	1399.107299804688	-504.2066955566407	306.1749572753907	1514.688720703125	-457.620330810547	395.255828857422	1541.16064453125	-525.2999877929689	-270.3138122558594	998.0903320312502	-840.3586425781252	-278.5218200683594	997.270935058594	-599.7223510742189	-450.4485778808595	1111.391845703125	-714.7618408203126	-460.9815368652345	1080.726806640625	-742.5932617187501	-460.7767944335939	1080.717895507813	-684.1788940429689	-302.3503723144532	734.8868408203126	-943.3982543945315	-266.7188720703126	656.9220581054689	-947.554382324219	-226.0990447998047	654.6182861328126	-918.5864868164065	-294.1148071289063	602.4781494140626	-951.786560058594	-309.8682556152344	523.4669799804689	-949.947448730469	-302.8103332519532	487.6981506347657	-822.866394042969	-402.6422729492189	426.5968017578126	-934.4182128906252	-449.8682861328126	442.9448547363282	-967.2288208007815	-531.1892700195314	420.3972167968751	-949.126159667969	-731.7798461914064	455.4146728515626	-959.1171875000002	-713.8912353515626	407.9104003906251	-880.1043090820315	-716.1686401367189	506.1423950195314	-894.1494750976565	-836.9916992187502	322.2114562988282	-883.9301757812502	-862.549987792969	383.9679870605469	-968.124694824219	-336.7322692871094	790.1236572265627	-538.5138549804689	-283.0195007324219	750.4132080078126	-541.3204345703126	-251.5523223876954	759.3591918945314	-544.1673583984376	-284.0485534667969	669.8588867187501	-567.0915527343751	-230.2921600341797	508.326873779297	-601.5565795898439	-202.5709533691407	517.0912475585939	-730.4824829101564	-230.2579345703126	325.8027954101563	-714.7636108398439	-286.4780578613282	251.6397094726563	-655.1705932617189	-256.7154541015626	241.6311950683594	-691.9381713867189	-281.1069641113282	207.861557006836	-731.9351196289064	-367.0487670898438	113.876579284668	-697.8789062500001	-335.0745544433594	141.7404479980469	-784.200134277344	-437.3982238769532	102.0468673706055	-764.6755981445314	-227.6813964843751	61.82053756713869	-775.0696411132815	-222.8638305664063	59.32757949829103	-723.6108398437501	-272.9393310546876	27.37228012084962	-672.0178222656251	-452.1327514648439	486.6829528808595	-973.711853027344	-857.015319824219	323.0065917968751	-923.748229980469	335.8438720703126	1503.707153320313	-807.9222412109377	nan	nan	nan	
437	2.18	-196.0530853271485	1721.406616210938	-635.9402465820314	-351.4510803222657	1676.95849609375	-717.3057250976564	-176.7183990478516	1725.770263671875	-778.5540161132815	-372.6097412109376	1521.344604492188	-730.8989868164064	-419.1375427246095	1223.699340820313	-719.9909667968751	-225.4859008789063	1462.522827148438	-707.0507812500001	-224.3866119384766	1518.409790039063	-856.503845214844	-64.1647415161133	1463.536254882813	-956.182556152344	-43.51888275146485	1501.728759765625	-929.0754394531252	4.076965332031251	1466.586791992188	-942.207702636719	77.3571014404297	1474.714965820313	-921.0051879882815	82.29721832275392	1419.791015625	-885.2630004882815	341.6744995117188	1524.656860351563	-886.2176513671877	430.5632629394532	1539.186279296875	-801.131042480469	-250.0447845458985	1527.49658203125	-560.4829101562501	-97.32593536376956	1451.904052734375	-446.4815368652345	-75.01323699951173	1490.421508789063	-471.2764587402345	-28.67913436889649	1462.778564453125	-446.865692138672	40.03266525268555	1457.272827148438	-453.8364562988282	50.21121215820314	1397.997802734375	-504.0063781738282	306.6466064453126	1513.64990234375	-457.5097045898439	395.6253356933595	1540.49462890625	-525.3320922851564	-270.6211547851563	997.0598144531252	-840.313659667969	-278.8510742187501	996.4338378906252	-599.6187744140626	-450.537567138672	1110.347534179688	-714.6287841796876	-461.0676269531251	1079.84228515625	-742.5753784179689	-460.906707763672	1079.802734375	-684.1480102539064	-302.4765930175782	733.9599609375001	-943.5738525390627	-266.8755493164063	656.0430297851564	-947.6667480468752	-226.5930938720704	653.6325683593751	-918.4951782226565	-294.6360168457032	601.6492919921876	-951.9139404296877	-310.2439880371094	522.5366210937501	-949.9760742187502	-303.2073059082032	486.9265136718751	-822.8952636718752	-403.060760498047	425.8826904296876	-934.722839355469	-450.4356079101564	442.2075195312501	-967.191345214844	-531.5919799804689	419.4586791992189	-949.2090454101565	-732.2834472656251	454.9932861328126	-958.9409790039065	-714.1740112304689	407.7109985351564	-880.037048339844	-716.7028808593751	505.5038146972657	-894.010192871094	-837.434997558594	321.7174377441407	-883.808044433594	-863.975280761719	383.7535095214844	-967.433044433594	-336.8395690917969	789.5043945312502	-538.2606811523439	-282.7506408691407	749.5571899414064	-541.0151367187501	-251.451156616211	758.6690063476564	-543.8638916015626	-284.0206909179688	669.1452636718751	-566.5206909179689	-229.7140197753907	508.0190429687501	-600.8960571289064	-201.5679321289063	516.6599121093751	-729.7202148437501	-229.7645263671876	325.3065795898438	-714.1053466796876	-286.3190002441407	251.4410705566407	-654.7464599609376	-256.5242309570313	241.5188293457032	-691.2992553710939	-280.8742370605469	207.7613220214844	-731.4881591796876	-366.9917297363282	113.8746414184571	-697.6845092773439	-334.8966369628907	141.9721069335938	-783.690124511719	-437.3673400878907	102.1440811157227	-764.5852661132814	-226.5668029785157	61.7926483154297	-774.4595947265627	-224.0240783691407	58.11919021606447	-722.9461059570314	-273.0445556640626	26.95786094665528	-671.8391113281251	-452.4816894531251	486.1644287109376	-973.8421630859377	-857.8980712890627	322.6304626464844	-923.4318847656252	336.1241760253907	1502.673583984375	-807.842712402344	nan	nan	nan	
